<svg xmlns="http://www.w3.org/2000/svg" viewBox="0 0 500 268" width="500" height="268"><rect width="500" height="268" fill="#ffffff"/><text x="54.0" y="18" font-family="system-ui, sans-serif" font-size="14" fill="#1f2933" font-weight="400" text-anchor="middle">1</text><rect x="12" y="26" width="84" height="84" rx="8" fill="#ffffff" stroke="#9aa5b1" stroke-width="1.5"/><polygon points="46.6,60.6 61.4,60.6 61.4,75.3 46.6,75.3" fill="#ffffff" stroke="#1f2933" stroke-width="2" stroke-linejoin="round"/><text x="152.0" y="18" font-family="system-ui, sans-serif" font-size="14" fill="#1f2933" font-weight="400" text-anchor="middle">2</text><rect x="110" y="26" width="84" height="84" rx="8" fill="#ffffff" stroke="#9aa5b1" stroke-width="1.5"/><polygon points="123.7,60.6 138.3,60.6 138.3,75.3 123.7,75.3" fill="#1f2933" stroke="#1f2933" stroke-width="2" stroke-linejoin="round"/><polygon points="165.7,60.6 180.3,60.6 180.3,75.3 165.7,75.3" fill="#1f2933" stroke="#1f2933" stroke-width="2" stroke-linejoin="round"/><text x="250.0" y="18" font-family="system-ui, sans-serif" font-size="14" fill="#1f2933" font-weight="400" text-anchor="middle">3</text><rect x="208" y="26" width="84" height="84" rx="8" fill="#ffffff" stroke="#9aa5b1" stroke-width="1.5"/><polygon points="221.7,80.6 236.3,80.6 236.3,95.3 221.7,95.3" fill="#ffffff" stroke="#1f2933" stroke-width="2" stroke-linejoin="round"/><polygon points="263.6,80.6 278.4,80.6 278.4,95.3 263.6,95.3" fill="#ffffff" stroke="#1f2933" stroke-width="2" stroke-linejoin="round"/><polygon points="242.7,40.7 257.4,40.7 257.4,55.4 242.7,55.4" fill="#ffffff" stroke="#1f2933" stroke-width="2" stroke-linejoin="round"/><text x="348.0" y="18" font-family="system-ui, sans-serif" font-size="14" fill="#1f2933" font-weight="400" text-anchor="middle">4</text><rect x="306" y="26" width="84" height="84" rx="8" fill="#ffffff" stroke="#9aa5b1" stroke-width="1.5"/><polygon points="319.6,40.7 334.4,40.7 334.4,55.4 319.6,55.4" fill="#1f2933" stroke="#1f2933" stroke-width="2" stroke-linejoin="round"/><polygon points="361.6,40.7 376.4,40.7 376.4,55.4 361.6,55.4" fill="#1f2933" stroke="#1f2933" stroke-width="2" stroke-linejoin="round"/><polygon points="319.6,80.6 334.4,80.6 334.4,95.3 319.6,95.3" fill="#1f2933" stroke="#1f2933" stroke-width="2" stroke-linejoin="round"/><polygon points="361.6,80.6 376.4,80.6 376.4,95.3 361.6,95.3" fill="#1f2933" stroke="#1f2933" stroke-width="2" stroke-linejoin="round"/><text x="446.0" y="18" font-family="system-ui, sans-serif" font-size="14" fill="#1f2933" font-weight="400" text-anchor="middle">?</text><rect x="404" y="26" width="84" height="84" rx="8" fill="#f1f4f7" stroke="#9aa5b1" stroke-width="1.5" stroke-dasharray="5 4"/><text x="446.0" y="77.0" font-family="system-ui, sans-serif" font-size="28" fill="#9aa5b1" font-weight="400" text-anchor="middle">?</text><line x1="12" x2="488" y1="130" y2="130" stroke="#d9dde3"/><rect x="12" y="154" width="84" height="84" rx="8" fill="#ffffff" stroke="#9aa5b1" stroke-width="1.5"/><polygon points="25.6,168.7 40.4,168.7 40.4,183.4 25.6,183.4" fill="#1f2933" stroke="#1f2933" stroke-width="2" stroke-linejoin="round"/><polygon points="67.7,168.7 82.3,168.7 82.3,183.4 67.7,183.4" fill="#1f2933" stroke="#1f2933" stroke-width="2" stroke-linejoin="round"/><polygon points="25.6,208.6 40.4,208.6 40.4,223.3 25.6,223.3" fill="#1f2933" stroke="#1f2933" stroke-width="2" stroke-linejoin="round"/><polygon points="67.7,208.6 82.3,208.6 82.3,223.3 67.7,223.3" fill="#1f2933" stroke="#1f2933" stroke-width="2" stroke-linejoin="round"/><text x="54.0" y="258" font-family="system-ui, sans-serif" font-size="14" fill="#1f2933" font-weight="700" text-anchor="middle">A</text><rect x="110" y="154" width="84" height="84" rx="8" fill="#ffffff" stroke="#9aa5b1" stroke-width="1.5"/><polygon points="122.7,167.8 137.3,167.8 137.3,182.4 122.7,182.4" fill="#1f2933" stroke="#1f2933" stroke-width="2" stroke-linejoin="round"/><polygon points="166.7,167.8 181.3,167.8 181.3,182.4 166.7,182.4" fill="#1f2933" stroke="#1f2933" stroke-width="2" stroke-linejoin="round"/><polygon points="144.7,188.7 159.3,188.7 159.3,203.3 144.7,203.3" fill="#1f2933" stroke="#1f2933" stroke-width="2" stroke-linejoin="round"/><polygon points="122.7,209.6 137.3,209.6 137.3,224.2 122.7,224.2" fill="#1f2933" stroke="#1f2933" stroke-width="2" stroke-linejoin="round"/><polygon points="166.7,209.6 181.3,209.6 181.3,224.2 166.7,224.2" fill="#1f2933" stroke="#1f2933" stroke-width="2" stroke-linejoin="round"/><text x="152.0" y="258" font-family="system-ui, sans-serif" font-size="14" fill="#1f2933" font-weight="700" text-anchor="middle">B</text><rect x="208" y="154" width="84" height="84" rx="8" fill="#ffffff" stroke="#9aa5b1" stroke-width="1.5"/><polygon points="220.7,167.8 235.3,167.8 235.3,182.4 220.7,182.4" fill="#ffffff" stroke="#1f2933" stroke-width="2" stroke-linejoin="round"/><polygon points="242.7,167.8 257.4,167.8 257.4,182.4 242.7,182.4" fill="#ffffff" stroke="#1f2933" stroke-width="2" stroke-linejoin="round"/><polygon points="264.6,167.8 279.4,167.8 279.4,182.4 264.6,182.4" fill="#ffffff" stroke="#1f2933" stroke-width="2" stroke-linejoin="round"/><polygon points="220.7,209.6 235.3,209.6 235.3,224.2 220.7,224.2" fill="#ffffff" stroke="#1f2933" stroke-width="2" stroke-linejoin="round"/><polygon points="242.7,209.6 257.4,209.6 257.4,224.2 242.7,224.2" fill="#ffffff" stroke="#1f2933" stroke-width="2" stroke-linejoin="round"/><polygon points="264.6,209.6 279.4,209.6 279.4,224.2 264.6,224.2" fill="#ffffff" stroke="#1f2933" stroke-width="2" stroke-linejoin="round"/><text x="250.0" y="258" font-family="system-ui, sans-serif" font-size="14" fill="#1f2933" font-weight="700" text-anchor="middle">C</text><rect x="306" y="154" width="84" height="84" rx="8" fill="#ffffff" stroke="#9aa5b1" stroke-width="1.5"/><polygon points="319.6,168.7 334.4,168.7 334.4,183.4 319.6,183.4" fill="#ffffff" stroke="#1f2933" stroke-width="2" stroke-linejoin="round"/><polygon points="361.6,168.7 376.4,168.7 376.4,183.4 361.6,183.4" fill="#ffffff" stroke="#1f2933" stroke-width="2" stroke-linejoin="round"/><polygon points="319.6,208.6 334.4,208.6 334.4,223.3 319.6,223.3" fill="#ffffff" stroke="#1f2933" stroke-width="2" stroke-linejoin="round"/><polygon points="361.6,208.6 376.4,208.6 376.4,223.3 361.6,223.3" fill="#ffffff" stroke="#1f2933" stroke-width="2" stroke-linejoin="round"/><text x="348.0" y="258" font-family="system-ui, sans-serif" font-size="14" fill="#1f2933" font-weight="700" text-anchor="middle">D</text><rect x="404" y="154" width="84" height="84" rx="8" fill="#ffffff" stroke="#9aa5b1" stroke-width="1.5"/><polygon points="416.6,167.8 431.4,167.8 431.4,182.4 416.6,182.4" fill="#ffffff" stroke="#1f2933" stroke-width="2" stroke-linejoin="round"/><polygon points="460.6,167.8 475.4,167.8 475.4,182.4 460.6,182.4" fill="#ffffff" stroke="#1f2933" stroke-width="2" stroke-linejoin="round"/><polygon points="438.6,188.7 453.4,188.7 453.4,203.3 438.6,203.3" fill="#ffffff" stroke="#1f2933" stroke-width="2" stroke-linejoin="round"/><polygon points="416.6,209.6 431.4,209.6 431.4,224.2 416.6,224.2" fill="#ffffff" stroke="#1f2933" stroke-width="2" stroke-linejoin="round"/><polygon points="460.6,209.6 475.4,209.6 475.4,224.2 460.6,224.2" fill="#ffffff" stroke="#1f2933" stroke-width="2" stroke-linejoin="round"/><text x="446.0" y="258" font-family="system-ui, sans-serif" font-size="14" fill="#1f2933" font-weight="700" text-anchor="middle">E</text></svg>