<svg xmlns="http://www.w3.org/2000/svg" viewBox="0 0 500 268" width="500" height="268"><rect width="500" height="268" fill="#ffffff"/><text x="54.0" y="18" font-family="system-ui, sans-serif" font-size="14" fill="#1f2933" font-weight="400" text-anchor="middle">1</text><rect x="12" y="26" width="84" height="84" rx="8" fill="#ffffff" stroke="#9aa5b1" stroke-width="1.5"/><polygon points="30.0,68.0 51.6,50.0 51.6,61.3 78.0,61.3 78.0,74.7 51.6,74.7 51.6,86.0" fill="#1f2933" stroke="#1f2933" stroke-width="2" stroke-linejoin="round"/><text x="152.0" y="18" font-family="system-ui, sans-serif" font-size="14" fill="#1f2933" font-weight="400" text-anchor="middle">2</text><rect x="110" y="26" width="84" height="84" rx="8" fill="#ffffff" stroke="#9aa5b1" stroke-width="1.5"/><polygon points="135.0,85.0 137.6,57.0 145.6,64.9 164.2,46.3 173.7,55.8 155.1,74.4 163.0,82.4" fill="#1f2933" stroke="#1f2933" stroke-width="2" stroke-linejoin="round"/><text x="250.0" y="18" font-family="system-ui, sans-serif" font-size="14" fill="#1f2933" font-weight="400" text-anchor="middle">3</text><rect x="208" y="26" width="84" height="84" rx="8" fill="#ffffff" stroke="#9aa5b1" stroke-width="1.5"/><polygon points="250.0,92.0 232.0,70.4 243.3,70.4 243.3,44.0 256.7,44.0 256.7,70.4 268.0,70.4" fill="#1f2933" stroke="#1f2933" stroke-width="2" stroke-linejoin="round"/><text x="348.0" y="18" font-family="system-ui, sans-serif" font-size="14" fill="#1f2933" font-weight="400" text-anchor="middle">4</text><rect x="306" y="26" width="84" height="84" rx="8" fill="#ffffff" stroke="#9aa5b1" stroke-width="1.5"/><polygon points="365.0,85.0 337.0,82.4 344.9,74.4 326.3,55.8 335.8,46.3 354.4,64.9 362.4,57.0" fill="#1f2933" stroke="#1f2933" stroke-width="2" stroke-linejoin="round"/><text x="446.0" y="18" font-family="system-ui, sans-serif" font-size="14" fill="#1f2933" font-weight="400" text-anchor="middle">?</text><rect x="404" y="26" width="84" height="84" rx="8" fill="#f1f4f7" stroke="#9aa5b1" stroke-width="1.5" stroke-dasharray="5 4"/><text x="446.0" y="77.0" font-family="system-ui, sans-serif" font-size="28" fill="#9aa5b1" font-weight="400" text-anchor="middle">?</text><line x1="12" x2="488" y1="130" y2="130" stroke="#d9dde3"/><rect x="12" y="154" width="84" height="84" rx="8" fill="#ffffff" stroke="#9aa5b1" stroke-width="1.5"/><polygon points="71.0,213.0 43.0,210.4 50.9,202.4 32.3,183.8 41.8,174.3 60.4,192.9 68.4,185.0" fill="#1f2933" stroke="#1f2933" stroke-width="2" stroke-linejoin="round"/><text x="54.0" y="258" font-family="system-ui, sans-serif" font-size="14" fill="#1f2933" font-weight="700" text-anchor="middle">A</text><rect x="110" y="154" width="84" height="84" rx="8" fill="#ffffff" stroke="#9aa5b1" stroke-width="1.5"/><polygon points="128.0,196.0 149.6,178.0 149.6,189.3 176.0,189.3 176.0,202.7 149.6,202.7 149.6,214.0" fill="#1f2933" stroke="#1f2933" stroke-width="2" stroke-linejoin="round"/><text x="152.0" y="258" font-family="system-ui, sans-serif" font-size="14" fill="#1f2933" font-weight="700" text-anchor="middle">B</text><rect x="208" y="154" width="84" height="84" rx="8" fill="#ffffff" stroke="#9aa5b1" stroke-width="1.5"/><polygon points="267.0,179.0 264.4,207.0 256.4,199.1 237.8,217.7 228.3,208.2 246.9,189.6 239.0,181.6" fill="#1f2933" stroke="#1f2933" stroke-width="2" stroke-linejoin="round"/><text x="250.0" y="258" font-family="system-ui, sans-serif" font-size="14" fill="#1f2933" font-weight="700" text-anchor="middle">C</text><rect x="306" y="154" width="84" height="84" rx="8" fill="#ffffff" stroke="#9aa5b1" stroke-width="1.5"/><polygon points="348.0,220.0 330.0,198.4 341.3,198.4 341.3,172.0 354.7,172.0 354.7,198.4 366.0,198.4" fill="#1f2933" stroke="#1f2933" stroke-width="2" stroke-linejoin="round"/><text x="348.0" y="258" font-family="system-ui, sans-serif" font-size="14" fill="#1f2933" font-weight="700" text-anchor="middle">D</text><rect x="404" y="154" width="84" height="84" rx="8" fill="#ffffff" stroke="#9aa5b1" stroke-width="1.5"/><polygon points="470.0,196.0 448.4,214.0 448.4,202.7 422.0,202.7 422.0,189.3 448.4,189.3 448.4,178.0" fill="#1f2933" stroke="#1f2933" stroke-width="2" stroke-linejoin="round"/><text x="446.0" y="258" font-family="system-ui, sans-serif" font-size="14" fill="#1f2933" font-weight="700" text-anchor="middle">E</text></svg>